<?xml version="1.0" encoding="UTF-8"?>
<svg width="33px" height="34px" viewBox="0 0 33 34" version="1.1" xmlns="http://www.w3.org/2000/svg" xmlns:xlink="http://www.w3.org/1999/xlink">
    <!-- Generator: Sketch 50.2 (55047) - http://www.bohemiancoding.com/sketch -->
    <title>3d-model</title>
    <desc>Created with Sketch.</desc>
    <defs></defs>
    <g id="Page-1" stroke="none" stroke-width="1" fill="none" fill-rule="evenodd">
        <g id="Desktop-HD-Copy-6" transform="translate(-149.000000, -15.000000)" fill-rule="nonzero">
            <g id="3d-model" transform="translate(149.000000, 15.000000)">
                <path d="M32.8495814,21.1758182 L17.5007442,0.312181818 C17.3556977,0.115909091 17.120093,0.0177727273 16.8837209,0.0177727273 L16.8837209,33.2272727 C17.0372093,33.2272727 17.1914651,33.1801364 17.3234651,33.0874091 L32.6723023,22.2692273 C32.8426744,22.1494545 32.9562558,21.9655455 32.9900233,21.76 C33.0230233,21.5552273 32.9723721,21.3442727 32.8495814,21.1758182 Z" id="Shape" fill="#FF2675"></path>
                <path d="M16.2666977,0.312954545 L0.917860465,21.1765909 C0.795069767,21.3450455 0.743651163,21.5552273 0.776651163,21.7607727 C0.810418605,21.9670909 0.924,22.1502273 1.09437209,22.27 L16.4432093,33.0881818 C16.5759767,33.1801364 16.7302326,33.2272727 16.8837209,33.2272727 L16.8837209,0.0177727273 C16.6473488,0.0177727273 16.4117442,0.115909091 16.2666977,0.312954545 Z" id="Shape" fill="#D81159"></path>
            </g>
        </g>
    </g>
</svg>